<svg xmlns="http://www.w3.org/2000/svg" width="48" height="48" viewBox="0 0 48 48">
  <defs>
    <linearGradient id="grad1" x1="0%" y1="0%" x2="100%" y2="100%">
      <stop offset="0%" style="stop-color:#6366F1;stop-opacity:1" />
      <stop offset="100%" style="stop-color:#8B5CF6;stop-opacity:1" />
    </linearGradient>
    <linearGradient id="grad2" x1="0%" y1="0%" x2="100%" y2="100%">
      <stop offset="0%" style="stop-color:#F59E0B;stop-opacity:1" />
      <stop offset="100%" style="stop-color:#EF4444;stop-opacity:1" />
    </linearGradient>
    <filter id="shadow" x="-50%" y="-50%" width="200%" height="200%">
      <feDropShadow dx="0" dy="2" stdDeviation="3" flood-opacity="0.15"/>
    </filter>
  </defs>
  <rect x="4" y="4" width="40" height="40" rx="10" fill="url(#grad1)" filter="url(#shadow)"/>
  
  <!-- Letter N in Newton style -->
  <g transform="translate(12, 10)">
    <path d="M4 4v20M4 4l16 20M20 4v20" stroke="white" stroke-width="2.5" stroke-linecap="round" stroke-linejoin="round" fill="none"/>
  </g>
  
  <!-- AI sparkles -->
  <g fill="url(#grad2)">
    <path d="M32 8l1.5 1.5L35 8l-1.5-1.5L32 8zm0 0l1.5 1.5L35 8l-1.5-1.5L32 8z" opacity="0.9"/>
    <path d="M36 14l1 1L38 14l-1-1L36 14z" opacity="0.7"/>
    <path d="M30 16l0.8 0.8L31.6 16l-0.8-0.8L30 16z" opacity="0.6"/>
  </g>
  
  <!-- Subtle tech grid pattern -->
  <g opacity="0.1">
    <line x1="8" y1="24" x2="40" y2="24" stroke="white" stroke-width="0.5"/>
    <line x1="24" y1="8" x2="24" y2="40" stroke="white" stroke-width="0.5"/>
  </g>
</svg>