<svg xmlns="http://www.w3.org/2000/svg" width="48" height="48" viewBox="0 0 48 48" role="img" aria-labelledby="title desc">
  <title id="title">Zotero AI Newton Icon</title>
  <desc id="desc">Bold gradient N with a bright star on white.</desc>
  <defs>
    <linearGradient id="nGradient" x1="0%" y1="0%" x2="100%" y2="100%">
      <stop offset="0%" stop-color="#0EA5E9" />
      <stop offset="100%" stop-color="#2563EB" />
    </linearGradient>
    <linearGradient id="starGradient" x1="0%" y1="0%" x2="0%" y2="100%">
      <stop offset="0%" stop-color="#F59E0B" />
      <stop offset="100%" stop-color="#F97316" />
    </linearGradient>
    <radialGradient id="glow" cx="75%" cy="20%" r="70%">
      <stop offset="0%" stop-color="#F97316" stop-opacity="0.22" />
      <stop offset="70%" stop-color="#F97316" stop-opacity="0" />
    </radialGradient>
    <filter id="softShadow" x="-20%" y="-20%" width="140%" height="140%">
      <feDropShadow dx="0" dy="4" stdDeviation="6" flood-color="#0F172A" flood-opacity="0.18" />
    </filter>
  </defs>

  <rect width="48" height="48" rx="11" fill="#FFFFFF" />
  <rect width="48" height="48" rx="11" fill="url(#glow)" />

  <g filter="url(#softShadow)">
    <path d="M14 36V14c0-1.1 0.9-2 2-2h3c1.1 0 2 0.9 2 2v13l9.5-12.3c0.6-0.8 1.5-1.3 2.5-1.3H37c1.1 0 2 0.9 2 2v20.6h-6V24.4L23.5 36.7c-0.6 0.8-1.5 1.3-2.5 1.3H16c-1.1 0-2-0.9-2-2z" fill="url(#nGradient)" />
  </g>

  <g transform="translate(0 -2)">
    <polygon points="35,5 39,15 49,15 41,21 44,31 35,25 26,31 29,21 21,15 31,15" fill="url(#starGradient)" filter="url(#softShadow)" />
    <circle cx="35" cy="18" r="10" fill="#FDBA74" opacity="0.18" />
  </g>

  <g stroke="#E2E8F0" stroke-width="1.4" opacity="0.65">
    <path d="M10 13h9" />
    <path d="M8.5 35h11" />
    <path d="M9 19h6" />
  </g>
</svg>
