<svg xmlns="http://www.w3.org/2000/svg" width="20" height="20" viewBox="0 0 20 20" role="img" aria-label="Newton sidebar icon 20px">
  <defs>
    <linearGradient id="nGradient" x1="0%" y1="0%" x2="100%" y2="100%">
      <stop offset="0%" stop-color="#0EA5E9" />
      <stop offset="100%" stop-color="#2563EB" />
    </linearGradient>
    <linearGradient id="starGradient" x1="0%" y1="0%" x2="0%" y2="100%">
      <stop offset="0%" stop-color="#F59E0B" />
      <stop offset="100%" stop-color="#F97316" />
    </linearGradient>
    <radialGradient id="glow" cx="70%" cy="18%" r="70%">
      <stop offset="0%" stop-color="#F97316" stop-opacity="0.2" />
      <stop offset="70%" stop-color="#F97316" stop-opacity="0" />
    </radialGradient>
  </defs>

  <rect width="20" height="20" rx="5" fill="#FFFFFF" />
  <rect width="20" height="20" rx="5" fill="url(#glow)" />

  <path d="M6 15V6.2c0-0.7 0.6-1.2 1.2-1.2h1.5c0.7 0 1.2 0.6 1.2 1.2v5.3l4.3-5.6c0.2-0.3 0.5-0.4 0.9-0.4h1.5c0.7 0 1.2 0.6 1.2 1.2V15h-2.6v-5.3l-4.3 5.6c-0.2 0.3-0.5 0.4-0.9 0.4H7.2c-0.7 0-1.2-0.6-1.2-1.2z" fill="url(#nGradient)" />

  <polygon points="14.5,1.2 15.8,4.7 19.2,4.7 16.2,7 17.4,10.4 14.5,8.5 11.6,10.4 12.8,7 9.8,4.7 13.2,4.7" fill="url(#starGradient)" />
  <circle cx="14.5" cy="6.2" r="2.8" fill="#FDBA74" opacity="0.25" />
</svg>
