<svg xmlns="http://www.w3.org/2000/svg" width="16" height="16" viewBox="0 0 16 16" role="img" aria-label="Newton sidebar icon 16px">
  <defs>
    <linearGradient id="nGradient" x1="0%" y1="0%" x2="100%" y2="100%">
      <stop offset="0%" stop-color="#0EA5E9" />
      <stop offset="100%" stop-color="#2563EB" />
    </linearGradient>
    <linearGradient id="starGradient" x1="0%" y1="0%" x2="0%" y2="100%">
      <stop offset="0%" stop-color="#F59E0B" />
      <stop offset="100%" stop-color="#F97316" />
    </linearGradient>
    <radialGradient id="glow" cx="70%" cy="18%" r="75%">
      <stop offset="0%" stop-color="#F97316" stop-opacity="0.2" />
      <stop offset="70%" stop-color="#F97316" stop-opacity="0" />
    </radialGradient>
  </defs>

  <rect width="16" height="16" rx="4" fill="#FFFFFF" />
  <rect width="16" height="16" rx="4" fill="url(#glow)" />

  <path d="M5 12.8V5.2c0-0.6 0.5-1 0.9-1H7c0.6 0 1 0.4 1 0.9v3.8l3-4c0.2-0.2 0.4-0.3 0.7-0.3h1.2c0.6 0 1 0.4 1 0.9v7.3h-2V9.6l-3 4c-0.2 0.2-0.4 0.3-0.7 0.3H5.9c-0.5 0-0.9-0.4-0.9-0.9z" fill="url(#nGradient)" />

  <polygon points="11.5,0.9 12.6,3.9 15.6,3.9 13.1,5.9 14.1,9 11.5,7.4 8.9,9 9.9,5.9 7.4,3.9 10.4,3.9" fill="url(#starGradient)" />
  <circle cx="11.5" cy="4.6" r="2.2" fill="#FDBA74" opacity="0.25" />
</svg>
