<svg width="512" height="512" viewBox="0 0 512 512" xmlns="http://www.w3.org/2000/svg" role="img" aria-labelledby="title desc">
  <title id="title">Zotero AI Newton Icon</title>
  <desc id="desc">Bold letter N with a large star on a white canvas.</desc>
  <defs>
    <linearGradient id="nGradient" x1="0%" y1="0%" x2="100%" y2="100%">
      <stop offset="0%" stop-color="#0EA5E9" />
      <stop offset="100%" stop-color="#2563EB" />
    </linearGradient>
    <linearGradient id="starGradient" x1="0%" y1="0%" x2="0%" y2="100%">
      <stop offset="0%" stop-color="#F59E0B" />
      <stop offset="100%" stop-color="#F97316" />
    </linearGradient>
    <radialGradient id="glow" cx="50%" cy="30%" r="60%">
      <stop offset="0%" stop-color="#F97316" stop-opacity="0.32" />
      <stop offset="70%" stop-color="#F97316" stop-opacity="0" />
    </radialGradient>
    <filter id="softShadow" x="-20%" y="-20%" width="140%" height="140%">
      <feDropShadow dx="0" dy="12" stdDeviation="18" flood-color="#0F172A" flood-opacity="0.18" />
    </filter>
  </defs>

  <rect width="512" height="512" rx="110" fill="#FFFFFF" />
  <rect width="512" height="512" rx="110" fill="url(#glow)" />

  <g filter="url(#softShadow)">
    <path d="M154 386V132c0-12 9.8-22 22-22h28c12.2 0 22 9.8 22 22v146l110-146c4.6-6.2 11.8-10 19.5-10H386c12.2 0 22 9.8 22 22v242h-54V240l-110 146c-4.6 6.2-11.8 10-19.5 10H176c-12.2 0-22-9.8-22-22z" fill="url(#nGradient)" />
  </g>

  <g transform="translate(0 -6)">
    <polygon points="380,64 405,134 476,134 418,178 438,246 380,204 322,246 342,178 284,134 355,134" fill="url(#starGradient)" filter="url(#softShadow)" />
    <circle cx="380" cy="150" r="78" fill="#FDBA74" opacity="0.14" />
  </g>

  <g stroke="#E2E8F0" stroke-width="3" opacity="0.65">
    <path d="M128 110h46" />
    <path d="M104 402h74" />
    <path d="M112 170h28" />
  </g>
</svg>
